<svg width="41" height="27" viewBox="0 0 41 27" fill="none" xmlns="http://www.w3.org/2000/svg">
<path d="M24.2277 0.0343267C29.6527 1.08433 32.9777 2.30933 34.2027 3.88433C36.1277 6.15933 41.0277 19.2843 40.6777 22.0843C40.5027 25.0593 36.1277 26.4593 31.9277 26.8093C30.3527 26.9843 29.3027 25.7593 28.7777 23.6593H11.9777L10.7527 25.9343C10.5777 26.1093 10.4027 26.2843 10.2277 26.4593C8.47772 26.9843 6.72772 26.9843 4.97772 26.2843C3.92772 25.9343 3.05272 25.2343 2.17772 24.3593C0.952717 23.3093 0.427717 21.5593 0.952717 19.9843L4.27772 8.78433C5.15272 5.80933 7.42772 3.35933 10.4027 2.48433L16.5277 0.384326C17.0527 0.209326 17.7527 0.559326 17.7527 1.25933V4.05933H22.8277V0.909327C23.1777 0.384327 23.7027 -0.140673 24.2277 0.0343267ZM14.4277 11.4093C13.0277 11.4093 11.8027 12.6343 11.8027 14.0343C11.8027 15.4343 13.0277 16.6593 14.4277 16.6593C15.8277 16.6593 17.0527 15.4343 17.0527 14.0343C17.0527 12.6343 15.8277 11.4093 14.4277 11.4093ZM26.6777 11.4093C25.2777 11.4093 24.0527 12.6343 24.0527 14.0343C24.0527 15.4343 25.2777 16.6593 26.6777 16.6593C28.0777 16.6593 29.3027 15.4343 29.3027 14.0343C29.3027 12.6343 28.0777 11.4093 26.6777 11.4093Z" fill="white"/>
</svg>
