<svg width="172" height="45" viewBox="0 0 172 45" fill="none" xmlns="http://www.w3.org/2000/svg">
<g clip-path="url(#clip0)">
<path d="M28.3935 1.30298C28.2751 3.1593 28.1654 4.99554 28.0644 6.81169C27.9635 8.62783 27.8344 10.4637 27.6772 12.3193L15.0623 12.9768V16.7026H26.0153L25.4197 25.8834L14.9986 26.1793L15.0579 42.5268L0 42.8226L0.952155 1.30298H28.3935Z" fill="white"/>
<path d="M119.889 37.8883C119.908 37.9912 119.945 38.0899 119.999 38.1797C120.065 38.2565 120.877 38.8855 123.148 38.7825C123.148 38.7825 124.295 38.6641 124.026 37.6647C123.856 37.0138 119.889 37.8883 119.889 37.8883Z" fill="#000007" stroke="#050505" stroke-width="1.56" stroke-linecap="round" stroke-linejoin="round"/>
<path d="M120.038 36.9294C120.038 36.9294 119.77 37.4773 119.889 37.886C120.009 38.2948 123.243 39.0147 123.704 38.3605C124.166 37.7063 124.109 37.5562 123.73 37.4652C123.162 37.297 122.611 37.0769 122.084 36.8077C121.809 36.6444 120.377 36.6006 120.038 36.9294Z" fill="#39393A" stroke="#050505" stroke-width="1.56" stroke-linecap="round" stroke-linejoin="round"/>
<path d="M115.341 38.3308C115.335 38.4471 115.349 38.5636 115.383 38.6749C115.435 38.7746 116.156 39.6688 118.654 40.1411C118.654 40.1411 119.932 40.3077 119.902 39.1549C119.884 38.3998 115.341 38.3308 115.341 38.3308Z" fill="#000007" stroke="#050505" stroke-width="1.56" stroke-linecap="round" stroke-linejoin="round"/>
<path d="M115.75 37.3284C115.75 37.3284 115.318 37.8489 115.341 38.331C115.364 38.8132 118.699 40.4219 119.37 39.829C120.042 39.2362 120.019 39.0619 119.629 38.8614C119.056 38.5334 118.515 38.1534 118.011 37.7261C117.751 37.4708 116.205 37.0544 115.75 37.3284Z" fill="#39393A" stroke="#050505" stroke-width="1.56" stroke-linecap="round" stroke-linejoin="round"/>
<path d="M122.699 32.1526C122.717 32.2184 122.504 36.9742 122.04 37.1003C121.576 37.2263 120.127 37.2635 120.013 36.8899C119.899 36.5162 117.971 30.9297 117.971 30.9297L122.699 32.1526Z" fill="#A67843" stroke="#0A0909" stroke-width="0.65" stroke-miterlimit="10"/>
<path d="M114.585 31.7999L115.562 37.4675C115.562 37.4675 117.467 37.8225 117.894 37.7162C118.321 37.6099 120.027 33.5521 120.027 33.5521L120.255 30.155L114.585 31.7999Z" fill="#A67843" stroke="#0A0909" stroke-width="0.65" stroke-miterlimit="10"/>
<path d="M114.833 24.917C114.833 24.917 112.874 29.6071 114.504 33.1992C114.806 33.8633 122.908 33.8995 123.161 33.6102C124.402 32.2009 122.482 24.7778 122.482 24.7778L114.833 24.917Z" fill="#0145F9" stroke="#22266D" stroke-width="0.67" stroke-linecap="round" stroke-linejoin="round"/>
<path d="M114.833 25.0693C114.833 25.0693 115.01 23.4475 115.327 22.9784C115.644 22.5094 116.627 20.1348 118.717 20.7966C119.715 21.1133 119.985 20.8832 120.002 20.869C120.02 20.8547 121.356 19.9616 122.068 20.6728C122.78 21.384 122.219 21.1002 123.014 21.5561C123.188 21.6447 123.341 21.7678 123.465 21.9177C123.559 22.0459 122.975 22.1916 122.95 22.3001C122.925 22.4086 123.444 22.5028 123.389 22.6113C123.237 22.9017 123.059 22.8743 123.059 23.2469C123.059 23.6195 122.962 24.3164 122.976 24.3427C122.99 24.369 123.246 24.7438 122.866 25.0265C122.487 25.3093 121.18 25.7585 120.981 25.684C120.781 25.6095 118.677 25.787 118.438 25.8353C118.199 25.8835 115.807 25.8703 114.833 25.0693Z" fill="#5A8F37" stroke="#152108" stroke-width="0.51" stroke-linecap="round" stroke-linejoin="round"/>
<path d="M117.489 21.439C117.489 21.439 119.19 21.2253 120.146 21.6581C120.475 21.8094 120.678 21.7995 120.744 22.2313" fill="#5A8F37"/>
<path d="M117.489 21.439C117.489 21.439 119.19 21.2253 120.146 21.6581C120.475 21.8094 120.678 21.7995 120.744 22.2313" stroke="#152108" stroke-width="0.51" stroke-linecap="round" stroke-linejoin="round"/>
<path d="M120.368 21.3466C120.368 21.3466 121.465 20.8721 122.303 20.997L120.368 21.3466Z" fill="#5A8F37"/>
<path d="M120.368 21.3466C120.368 21.3466 121.465 20.8721 122.303 20.997" stroke="#152108" stroke-width="0.51" stroke-linecap="round" stroke-linejoin="round"/>
<path d="M120.665 22.5478C120.665 22.5478 120.985 21.2744 123.17 21.8761C123.755 22.036 123.48 22.5105 123.327 22.5796C121.834 23.2546 120.665 22.6837 120.665 22.5478Z" fill="#FCFFFA" stroke="#152108" stroke-width="0.51" stroke-linecap="round" stroke-linejoin="round"/>
<path d="M117.839 22.2454C118.021 21.9835 118.291 21.7643 119.036 21.7216C119.616 21.6887 120.728 21.704 120.74 22.2695C120.775 23.5198 117.515 22.71 117.839 22.2454Z" fill="#FCFFFA" stroke="#152108" stroke-width="0.51" stroke-linecap="round" stroke-linejoin="round"/>
<path d="M118.641 22.3637C118.641 22.3637 118.569 21.9495 118.903 21.8465C119.238 21.7435 119.691 21.8465 119.75 22.2048C119.809 22.5632 119.429 22.7779 119.17 22.7988C119.106 22.8063 119.042 22.801 118.98 22.783C118.919 22.765 118.862 22.7348 118.812 22.6941C118.763 22.6535 118.722 22.6032 118.693 22.5464C118.663 22.4896 118.646 22.4275 118.641 22.3637Z" fill="#040701"/>
<path d="M119.08 22.0525C119.133 22.0525 119.176 22.0093 119.176 21.9561C119.176 21.9028 119.133 21.8596 119.08 21.8596C119.026 21.8596 118.983 21.9028 118.983 21.9561C118.983 22.0093 119.026 22.0525 119.08 22.0525Z" fill="white"/>
<path d="M119.38 22.298C119.453 22.298 119.512 22.244 119.512 22.1774C119.512 22.1109 119.453 22.0569 119.38 22.0569C119.308 22.0569 119.249 22.1109 119.249 22.1774C119.249 22.244 119.308 22.298 119.38 22.298Z" fill="white"/>
<path d="M119.036 22.368C119.082 22.368 119.12 22.3362 119.12 22.2968C119.12 22.2575 119.082 22.2256 119.036 22.2256C118.989 22.2256 118.951 22.2575 118.951 22.2968C118.951 22.3362 118.989 22.368 119.036 22.368Z" fill="white"/>
<path d="M117.739 21.7534C117.739 21.7534 118.346 21.4838 118.518 21.4871L117.739 21.7534Z" fill="#5A8F37"/>
<path d="M117.739 21.7534C117.739 21.7534 118.346 21.4838 118.518 21.4871" stroke="#152108" stroke-width="0.51" stroke-linecap="round" stroke-linejoin="round"/>
<path d="M120.63 22.6453C120.63 22.6453 120.776 22.6836 120.688 22.7987C120.6 22.9137 119.262 23.7049 118.08 22.9554" stroke="#152108" stroke-width="0.51" stroke-linecap="round" stroke-linejoin="round"/>
<path d="M120.698 22.7932C120.698 22.7932 120.892 23.4639 122.914 23.0288" stroke="#152108" stroke-width="0.51" stroke-linecap="round" stroke-linejoin="round"/>
<path d="M122.869 23.7851C122.869 23.7851 123.321 23.887 123.266 23.5922C123.211 23.2974 122.805 23.2054 122.482 23.3259C122.16 23.4464 119.787 23.67 119.483 23.67C119.18 23.67 118.346 23.6196 118.346 23.9604C118.346 24.3012 120.019 24.917 121.781 24.31C122.301 24.1313 122.892 24.5291 123.098 24.2552C123.304 23.9812 123.233 23.8409 122.869 23.7851Z" fill="#BB5B0C" stroke="#4C1E07" stroke-width="0.48" stroke-linecap="round" stroke-linejoin="round"/>
<path d="M122.869 23.7849C122.869 23.7849 119.992 24.0545 119.721 24.0589C119.393 24.0577 119.065 24.0317 118.741 23.9811" fill="#BB5B0C"/>
<path d="M122.869 23.7849C122.869 23.7849 119.992 24.0545 119.721 24.0589C119.393 24.0577 119.065 24.0317 118.741 23.9811" stroke="#4C1E07" stroke-width="0.48" stroke-linecap="round" stroke-linejoin="round"/>
<path d="M117.853 24.437C117.853 24.437 118.124 24.8753 118.308 24.9192L117.853 24.437Z" fill="#5A8F37"/>
<path d="M117.853 24.437C117.853 24.437 118.124 24.8753 118.308 24.9192" stroke="#152108" stroke-width="0.51" stroke-linecap="round" stroke-linejoin="round"/>
<path d="M121.525 22.3922C121.525 22.3922 121.459 22.0185 121.762 21.9243C122.065 21.8301 122.475 21.9243 122.53 22.253C122.585 22.5818 122.239 22.7714 122.005 22.79C121.947 22.7971 121.888 22.7924 121.832 22.776C121.776 22.7596 121.724 22.7319 121.679 22.6946C121.634 22.6574 121.597 22.6114 121.571 22.5593C121.544 22.5073 121.529 22.4505 121.525 22.3922Z" fill="#040701"/>
<path d="M121.922 22.1116C121.97 22.1116 122.009 22.0724 122.009 22.0239C122.009 21.9755 121.97 21.9363 121.922 21.9363C121.873 21.9363 121.834 21.9755 121.834 22.0239C121.834 22.0724 121.873 22.1116 121.922 22.1116Z" fill="white"/>
<path d="M122.193 22.3342C122.258 22.3342 122.311 22.2851 122.311 22.2246C122.311 22.1641 122.258 22.115 122.193 22.115C122.127 22.115 122.074 22.1641 122.074 22.2246C122.074 22.2851 122.127 22.3342 122.193 22.3342Z" fill="white"/>
<path d="M121.882 22.3957C121.925 22.3957 121.959 22.3672 121.959 22.3321C121.959 22.297 121.925 22.2686 121.882 22.2686C121.84 22.2686 121.806 22.297 121.806 22.3321C121.806 22.3672 121.84 22.3957 121.882 22.3957Z" fill="white"/>
<path d="M116.785 32.099C117.004 31.8963 116.998 31.2585 116.998 31.2585L117.107 29.9019L117.152 27.5294L117.043 26.999L115.866 27.4439C115.866 27.4439 116.304 29.9479 116.382 30.3084C116.46 30.6689 116.336 31.3144 116.053 31.4711C115.856 31.5312 115.667 31.6159 115.492 31.7231C115.192 31.905 115.272 32.202 115.569 32.099C115.867 31.996 116.041 32.0913 115.91 32.2184C115.778 32.3455 115.515 32.5538 115.646 32.6852C115.778 32.8167 116.155 32.6239 116.245 32.4792C116.335 32.3346 116.465 32.2732 116.472 32.3817C116.48 32.4902 116.132 32.8529 116.45 32.8847C116.768 32.9165 116.785 32.099 116.785 32.099Z" fill="#5A8F37" stroke="#152108" stroke-width="0.51" stroke-linecap="round" stroke-linejoin="round"/>
<path d="M115.299 25.7795C115.35 25.7795 117.297 25.522 117.242 26.7526C117.187 27.9832 117.297 28.1005 117.297 28.1005L115.784 28.2352C115.597 28.2528 115.346 27.283 115.346 27.283" fill="#0145F9"/>
<path d="M115.299 25.7795C115.35 25.7795 117.297 25.522 117.242 26.7526C117.187 27.9832 117.297 28.1005 117.297 28.1005L115.784 28.2352C115.597 28.2528 115.346 27.283 115.346 27.283" stroke="#22266D" stroke-width="0.67" stroke-linecap="round" stroke-linejoin="round"/>
<path d="M122.487 21.2C122.487 21.2 121.128 21.4016 120.93 21.6503C120.733 21.8991 120.773 22.2706 120.773 22.2706C120.773 22.2706 120.705 22.424 120.73 22.458C120.754 22.4919 120.758 22.5193 121.117 22.138C121.475 21.7566 121.944 21.7347 122.555 21.7533" fill="#5A8F37"/>
<path d="M122.487 21.2C122.487 21.2 121.128 21.4016 120.93 21.6503C120.733 21.8991 120.773 22.2706 120.773 22.2706C120.773 22.2706 120.705 22.424 120.73 22.458C120.754 22.4919 120.758 22.5193 121.117 22.138C121.475 21.7566 121.944 21.7347 122.555 21.7533" stroke="#152108" stroke-width="0.51" stroke-linecap="round" stroke-linejoin="round"/>
<path d="M24.5915 40.7799C24.5915 40.7799 24.133 42.4521 23.2631 42.2768C22.3932 42.1015 17.8694 39.8879 18.9345 39.34C19.9996 38.7921 23.7907 40.0808 23.7907 40.0808L24.5915 40.7799Z" fill="#39393A" stroke="#050505" stroke-width="1.04" stroke-linecap="round" stroke-linejoin="round"/>
<path d="M23.8927 36.124C23.8927 36.124 21.9906 38.9162 22.5972 40.0306C23.2039 41.1451 24.3151 41.4322 24.9535 41.0826C25.5919 40.7331 28.9596 36.4484 28.9596 36.4484L23.8927 36.124Z" fill="#A67843" stroke="#0A0909" stroke-width="1.04" stroke-miterlimit="10"/>
<path d="M26.8468 35.9432C26.8468 35.9432 28.7511 40.2717 30.3472 40.4547C31.9432 40.6377 34.4871 40.5895 34.6012 39.9462C34.7153 39.303 35.9581 37.0971 34.6012 37.3316C33.2442 37.5661 34.1766 37.8904 32.144 37.5069C30.1113 37.1234 29.7307 34.5317 29.7307 34.5317L26.8468 35.9432Z" fill="#A67843" stroke="#0A0909" stroke-width="1.04" stroke-miterlimit="10"/>
<path d="M34.9478 37.724C34.9478 37.724 35.0783 37.3953 36.1138 37.9256C37.1494 38.456 38.3637 41.5243 37.179 41.7479C35.9943 41.9714 34.7065 40.3759 34.4234 39.462C34.1404 38.5481 34.9478 37.724 34.9478 37.724Z" fill="#39393A" stroke="#050505" stroke-width="1.04" stroke-linecap="round" stroke-linejoin="round"/>
<path d="M35.8868 20.4241L35.923 20.4602L35.8868 20.4241Z" fill="#FED824"/>
<path d="M35.8704 20.3977L35.889 20.4262L35.8704 20.3977Z" fill="#FED824"/>
<path d="M24.3524 33.1137C23.5238 32.9349 22.7975 32.4409 22.3274 31.7363C21.6692 30.7226 19.755 28.3392 19.8439 27.0955C19.9327 25.8517 20.3287 25.4857 20.1094 25.1109C19.89 24.7361 18.9773 24.3274 19.2318 24.094C19.5773 23.7861 19.9646 24.2649 20.252 24.2573C20.252 24.2573 20.2596 23.6447 20.2267 23.4036C20.185 23.0891 20.7938 22.813 20.8092 23.2776C20.8246 23.7422 20.5525 24.3263 20.8092 24.208C21.0659 24.0896 21.1383 23.396 21.1953 23.396C21.2524 23.396 21.7712 23.1768 21.6582 23.5801C21.5453 23.9833 21.316 24.4085 21.3884 24.4414C21.4608 24.4742 21.8469 23.9888 22.0191 24.0261C22.1914 24.0633 22.2583 24.4096 21.8667 24.6835C21.4751 24.9575 21.5003 24.8611 21.112 25.4901C20.7236 26.1191 20.6984 26.7985 21.022 27.7595C21.3456 28.7206 22.7914 30.5133 23.0898 31.0141C23.3881 31.5149 24.1077 31.4974 24.201 32.0606C24.2942 32.6239 24.3524 33.1137 24.3524 33.1137Z" fill="#5A8F37" stroke="#152108" stroke-width="0.63" stroke-linecap="round" stroke-linejoin="round"/>
<path d="M33.3474 34.8058C33.3474 34.6875 33.1445 31.7857 31.9905 31.3222C30.8365 30.8587 24.1056 30.8203 24.1056 30.8203C24.1056 30.8203 23.7282 32.2131 23.0503 32.8443C22.3724 33.4755 22.8583 35.7252 23.1446 36.5701C23.4309 37.415 31.2972 37.9947 32.3206 37.5443C33.3441 37.0939 33.3474 34.8058 33.3474 34.8058Z" fill="#0145F9" stroke="#22266D" stroke-width="0.63" stroke-linecap="round" stroke-linejoin="round"/>
<path d="M30.4481 27.5831L29.7109 30.3774L22.6378 27.8987L22.301 27.6017L22.1793 27.4768L22.1771 27.2762L22.244 27.1053L23.4704 26.3327L27.2549 26.3174L30.4481 27.5831Z" fill="#F7F7F7"/>
<path d="M24.6924 27.7071C24.6924 27.7071 24.8383 26.9937 24.2624 26.7976C23.6865 26.6014 22.8978 26.7548 22.7793 27.3795C22.6608 28.0041 23.308 28.3876 23.7567 28.4358C23.8664 28.4518 23.9782 28.4454 24.0853 28.4171C24.1925 28.3887 24.2928 28.339 24.3802 28.2709C24.4676 28.2028 24.5403 28.1178 24.594 28.0209C24.6476 27.924 24.6811 27.8173 24.6924 27.7071Z" fill="#040701"/>
<path d="M23.9518 27.1481C24.0444 27.1481 24.1194 27.073 24.1194 26.9804C24.1194 26.8878 24.0444 26.8127 23.9518 26.8127C23.8592 26.8127 23.7841 26.8878 23.7841 26.9804C23.7841 27.073 23.8592 27.1481 23.9518 27.1481Z" fill="white"/>
<path d="M23.6493 27.3569C23.6525 27.2413 23.5535 27.1449 23.4283 27.1415C23.3031 27.138 23.199 27.2289 23.1958 27.3445C23.1926 27.46 23.2916 27.5565 23.4168 27.5599C23.542 27.5633 23.6461 27.4725 23.6493 27.3569Z" fill="white"/>
<path d="M24.2321 27.6412C24.2341 27.5734 24.17 27.5165 24.0889 27.5141C24.0078 27.5116 23.9404 27.5646 23.9384 27.6324C23.9363 27.7002 24.0004 27.7571 24.0815 27.7595C24.1626 27.762 24.23 27.709 24.2321 27.6412Z" fill="white"/>
<path d="M28.4297 28.1771C28.4297 28.1771 28.5833 27.4243 27.9756 27.2182C27.3679 27.0122 26.5353 27.1766 26.4091 27.8341C26.283 28.4916 26.9686 28.8981 27.4414 28.9486C27.9142 28.999 28.3387 28.7305 28.4297 28.1771Z" fill="#040701"/>
<path d="M27.6474 27.5875C27.7448 27.5875 27.8238 27.5085 27.8238 27.411C27.8238 27.3136 27.7448 27.2346 27.6474 27.2346C27.5499 27.2346 27.4709 27.3136 27.4709 27.411C27.4709 27.5085 27.5499 27.5875 27.6474 27.5875Z" fill="white"/>
<path d="M27.3278 27.8082C27.3312 27.686 27.2265 27.584 27.094 27.5804C26.9615 27.5767 26.8514 27.6729 26.8481 27.7951C26.8447 27.9173 26.9494 28.0193 27.0819 28.0229C27.2144 28.0266 27.3245 27.9304 27.3278 27.8082Z" fill="white"/>
<path d="M27.8649 28.0413C27.8669 27.9699 27.7993 27.9102 27.714 27.9078C27.6287 27.9055 27.558 27.9615 27.556 28.0329C27.5541 28.1042 27.6216 28.164 27.7069 28.1663C27.7922 28.1687 27.863 28.1127 27.8649 28.0413Z" fill="white"/>
<path d="M22.934 28.0017C23.421 28.0926 23.8346 28.2713 24.62 28.2702C25.0631 28.2542 25.5017 28.1764 25.9232 28.0389C25.9901 28.9156 29.836 28.7907 29.9446 28.2855C29.9446 28.2855 29.8097 28.2943 28.8476 27.5655C28.1522 27.0406 27.2768 26.8511 26.7799 26.9837C26.283 27.1163 25.9385 27.6192 25.9023 27.7749C25.9023 27.7825 25.9023 27.7891 25.9023 27.7968C25.5656 26.8697 24.6024 26.5914 23.8828 26.4949C23.0722 26.3908 22.3767 27.0045 22.2736 27.0932C22.2371 27.1306 22.21 27.176 22.1946 27.2258C22.1588 27.0859 22.1422 26.9418 22.1453 26.7974C22.154 26.4686 22.731 26.0741 23.1325 25.8352C23.534 25.5964 24.1428 25.6161 24.1428 25.6161C24.1428 25.6161 24.4258 25.2676 25.039 25.2336C25.6522 25.1997 26.8227 25.4429 27.2516 25.7815C27.6805 26.1202 27.9328 25.9306 28.9815 25.6303C30.0302 25.3301 31.6482 26.793 31.7019 26.8763C31.7557 26.9596 32.5137 28.68 32.2416 30.2076C31.9696 31.7352 30.3768 31.5598 30.3318 31.5949C30.0894 31.8031 26.6439 31.619 25.8826 31.5368C25.0248 31.4448 24.4291 31.2179 24.0013 31.0985C23.3914 30.9275 23.0985 30.2273 23.093 30.0925L23.0239 29.9424L23.0349 29.6695L22.8605 29.0394C22.8605 29.0394 23.2159 28.6208 22.7266 28.1332C22.5779 27.9861 22.4518 27.8177 22.3526 27.6335C22.4535 27.6817 22.719 27.9622 22.934 28.0017Z" fill="#5A8F37" stroke="#152108" stroke-width="0.63" stroke-linecap="round" stroke-linejoin="round"/>
<path d="M22.3524 27.6368C22.314 27.6215 22.2791 27.5984 22.25 27.5691C22.2208 27.5397 22.198 27.5046 22.183 27.4661C22.168 27.4276 22.1611 27.3863 22.1627 27.345C22.1643 27.3037 22.1744 27.2631 22.1924 27.2258" stroke="#152108" stroke-width="0.63" stroke-linecap="round" stroke-linejoin="round"/>
<path d="M25.9001 27.7969C25.8793 27.8779 25.8878 27.9637 25.9242 28.0391Z" fill="#5A8F37"/>
<path d="M25.9001 27.7969C25.8793 27.8779 25.8878 27.9637 25.9242 28.0391V28.0391" stroke="#152108" stroke-width="0.63" stroke-linecap="round" stroke-linejoin="round"/>
<path d="M25.9473 26.9103C25.7302 26.7272 25.48 26.5874 25.2102 26.4983C24.8021 26.3778 23.0722 26.2287 22.3219 26.4457" stroke="#152108" stroke-width="0.63" stroke-linecap="round" stroke-linejoin="round"/>
<path d="M26.8303 26.3504C26.8303 26.3504 25.8595 25.7587 24.1384 25.6206" stroke="#152108" stroke-width="0.63" stroke-linecap="round" stroke-linejoin="round"/>
<path d="M30.4086 27.7244C30.4086 27.7244 29.4214 27.114 29.1362 26.8412C28.851 26.5683 27.9438 26.371 27.0695 26.6023" stroke="#152108" stroke-width="0.63" stroke-linecap="round" stroke-linejoin="round"/>
<path d="M27.5906 26.2679C27.5906 26.2679 28.5471 25.9962 29.0835 26.0838C29.6199 26.1715 30.6324 26.8838 30.6324 26.8838" stroke="#152108" stroke-width="0.63" stroke-linecap="round" stroke-linejoin="round"/>
<path d="M23.0613 29.3114C23.0349 29.2916 22.4196 28.9826 22.4437 28.8018C22.4678 28.621 22.6773 28.2188 22.9022 28.3558C23.1271 28.4928 24.1001 29.2741 25.5404 29.0944C26.9807 28.9147 28.1961 29.1207 29.1351 28.8434C30.0741 28.5662 30.7268 28.3613 31.0153 28.7711C31.3038 29.181 30.8025 29.7858 28.5833 30.0247C26.3642 30.2636 25.6983 30.3075 25.0632 30.2965C24.4281 30.2855 22.9691 30.5003 22.889 29.9075C22.809 29.3146 23.0613 29.3114 23.0613 29.3114Z" fill="#B85B0C" stroke="#4C1E07" stroke-width="0.63" stroke-linecap="round" stroke-linejoin="round"/>
<path d="M23.0613 29.3113C23.0613 29.3113 24.8767 29.6598 25.5152 29.7134C26.1536 29.7671 29.2613 29.8033 30.0642 29.217" fill="#B85B0C"/>
<path d="M23.0613 29.3113C23.0613 29.3113 24.8767 29.6598 25.5152 29.7134C26.1536 29.7671 29.2613 29.8033 30.0642 29.217" stroke="#4C1E07" stroke-width="0.63" stroke-linecap="round" stroke-linejoin="round"/>
<path d="M31.6218 32.0103C31.6218 32.0103 32.8109 32.0289 33.7159 28.6023C34.6209 25.1756 34.3576 24.8228 33.7039 24.5028C33.0501 24.1828 33.0907 25.2392 32.5093 24.4096C31.9279 23.5801 32.3996 23.8398 32.5905 23.9143C32.7813 23.9888 33.468 24.2431 33.1554 23.8299C32.8427 23.4168 32.1166 23.1012 32.0924 22.7254C32.0683 22.3495 33.1894 23.7784 33.3737 23.4201C33.558 23.0618 32.676 22.0558 32.9875 22.0887C33.2991 22.1216 33.6698 22.8558 33.8366 23.1604C34.0033 23.465 33.8728 22.1369 34.1832 22.2191C34.4937 22.3013 34.1942 23.2053 34.3028 23.4924C34.4114 23.7795 34.7416 24.2979 34.7152 24.4009C34.6889 24.5039 35.0608 25.3772 34.8184 27.319C34.5759 29.2609 34.3916 30.1945 33.6808 31.5818C32.97 32.9691 31.7557 33.6935 31.4595 33.3691C31.1633 33.0447 31.6218 32.0103 31.6218 32.0103Z" fill="#5A8F37" stroke="#152108" stroke-width="0.63" stroke-linecap="round" stroke-linejoin="round"/>
<path d="M64.853 14.866C64.8661 16.273 64.7315 17.6775 64.4515 19.0565C64.2006 20.2625 63.7737 21.4251 63.1845 22.5072C62.5886 23.5797 61.8362 24.5577 60.9522 25.4089C59.9439 26.3719 58.8364 27.2256 57.6482 27.9556L64.7345 40.5127L51.3374 43.1186L46.7576 30.5023L43.0675 30.6218L42.5311 42.941H29.7329C29.8324 38.4394 29.9267 33.9578 30.0159 29.4964C30.1051 25.0349 30.2094 20.553 30.3286 16.0506C30.368 13.7815 30.4079 11.5311 30.4481 9.29925C30.4883 7.06742 30.5673 4.8166 30.6851 2.54678C32.0301 2.04775 33.4016 1.62266 34.7932 1.27343C36.1311 0.939976 37.486 0.678067 38.8519 0.488824C40.2136 0.301804 41.5939 0.175419 42.9929 0.109669C44.3919 0.0439198 45.8252 0.00739232 47.2929 8.6829e-05C49.5156 -0.0060011 51.7275 0.308079 53.8604 0.932633C55.8856 1.51225 57.7861 2.46113 59.4658 3.73137C61.0945 4.9773 62.4304 6.56431 63.3797 8.38095C64.3626 10.2373 64.8537 12.399 64.853 14.866ZM51.5195 15.8139C51.5279 15.0404 51.4124 14.2705 51.1772 13.5335C50.9665 12.8732 50.6218 12.2633 50.1648 11.7418C49.7042 11.2284 49.135 10.8238 48.4985 10.5573C47.757 10.2569 46.9619 10.1111 46.162 10.1288C45.7739 10.128 45.3862 10.1526 45.0014 10.2022C44.6311 10.2498 44.2646 10.323 43.9044 10.4214L43.4284 21.4377H44.1425C45.0206 21.4335 45.8951 21.3232 46.7466 21.1089C47.5911 20.9082 48.396 20.5678 49.1281 20.1019C49.8263 19.6543 50.416 19.0573 50.8547 18.354C51.2986 17.6483 51.5202 16.8016 51.5195 15.8139Z" fill="white"/>
<path d="M99.8227 19.4862C99.8219 21.2092 99.7024 22.93 99.4651 24.6366C96.0726 24.8558 92.6994 25.2061 89.3457 25.6875C85.992 26.1689 82.6389 26.6478 79.2866 27.1241C79.8022 28.545 80.6107 29.6803 81.712 30.5299C82.8134 31.3796 84.1297 31.804 85.661 31.8033C86.5466 31.7876 87.4247 31.6376 88.2652 31.3584C89.2276 31.0545 90.1674 30.6835 91.0778 30.2483C92.008 29.8078 92.8998 29.3318 93.7533 28.8204C94.6067 28.3091 95.3409 27.8452 95.9559 27.4287L94.5299 40.8734C93.7506 41.4691 92.9069 41.9756 92.0146 42.3835C91.108 42.7999 90.167 43.1368 89.202 43.3905C88.2341 43.6464 87.2496 43.8346 86.2556 43.9538C85.2877 44.0706 84.3137 44.1299 83.3388 44.1313C81.3738 44.1313 79.5781 43.8646 77.9517 43.3313C76.3693 42.8218 74.8771 42.0667 73.5298 41.0937C72.213 40.1379 71.0446 38.9932 70.0624 37.6966C69.0638 36.384 68.2339 34.9516 67.592 33.4328C66.9274 31.8601 66.4285 30.2225 66.1035 28.5465C65.7665 26.8319 65.5972 25.0886 65.5978 23.3413C65.5985 21.4939 65.7677 19.6504 66.1035 17.8337C66.4352 16.0193 66.9497 14.2431 67.6392 12.5321C68.309 10.8596 69.1782 9.27382 70.228 7.80912C71.2552 6.37305 72.4831 5.09142 73.8743 4.00332C75.2954 2.90063 76.8892 2.04014 78.5912 1.45663C80.3463 0.845161 82.2861 0.539061 84.4105 0.53833C86.1751 0.53833 87.7869 0.780507 89.2459 1.26486C90.647 1.71884 91.9643 2.39883 93.1455 3.27789C94.2899 4.14137 95.2937 5.17636 96.1216 6.3462C96.9769 7.55205 97.6771 8.86049 98.2058 10.2408C98.7616 11.6868 99.1706 13.185 99.4267 14.7128C99.6929 16.29 99.8254 17.8868 99.8227 19.4862ZM87.9175 17.9521C87.9156 17.3799 87.8557 16.8093 87.7387 16.2492C87.6296 15.6938 87.4338 15.1591 87.1584 14.6646C86.8991 14.2002 86.5379 13.8005 86.102 13.4953C85.6632 13.19 85.1177 13.0369 84.4654 13.0362C83.7162 13.0226 82.9819 13.2454 82.3669 13.6729C81.7529 14.1065 81.2232 14.6483 80.8037 15.2717C80.3631 15.9218 80.0036 16.6232 79.7331 17.3603C79.4768 18.0357 79.2679 18.7281 79.1078 19.4325L87.9175 18.6041V17.9521Z" fill="white"/>
<path d="M138.695 28.4301C138.695 30.6612 138.671 32.8675 138.621 35.0489C138.571 37.2303 138.498 39.4267 138.401 41.6381L121.258 41.3422C121.854 37.848 122.369 34.3582 122.806 30.8727C123.245 27.3708 123.465 23.8449 123.464 20.3156C123.464 20.0591 123.454 19.6445 123.435 19.0718C123.415 18.499 123.375 17.8525 123.315 17.1322C123.256 16.4111 123.172 15.6707 123.063 14.911C122.965 14.207 122.815 13.5112 122.616 12.8289C122.465 12.2801 122.234 11.7563 121.932 11.2739C121.664 10.8696 121.34 10.6668 120.964 10.6668C120.341 10.649 119.732 10.8595 119.253 11.2586C118.765 11.6819 118.37 12.2012 118.092 12.784C117.77 13.4476 117.525 14.1463 117.363 14.866C117.186 15.6279 117.052 16.3991 116.961 17.176C116.872 17.9468 116.812 18.6726 116.783 19.3534C116.753 20.0343 116.738 20.5921 116.738 21.0267C116.637 24.5202 116.558 27.9903 116.5 31.4371C116.441 34.8838 116.362 38.3634 116.262 41.8759L101.083 42.5279C101.479 35.5585 101.861 28.6285 102.228 21.7379C102.595 14.8474 102.888 7.91777 103.106 0.949063L117.153 0.237874L117.035 4.97622C117.591 4.30427 118.192 3.67122 118.835 3.08154C119.467 2.49887 120.16 1.98734 120.904 1.55615C121.639 1.13098 122.421 0.792649 123.234 0.547992C124.079 0.297982 124.956 0.173191 125.838 0.177603C127.524 0.177603 129.002 0.454116 130.272 1.00714C131.502 1.53264 132.615 2.29782 133.546 3.25796C134.487 4.24685 135.261 5.38194 135.838 6.61885C136.465 7.94527 136.963 9.32868 137.326 10.7501C137.711 12.2552 138 13.7834 138.19 15.3252C138.387 16.9156 138.521 18.4804 138.591 20.0197C138.661 21.559 138.696 23.0493 138.695 24.4906V28.4301Z" fill="white"/>
<path d="M172.002 28.2527C172.002 30.9557 171.531 33.2902 170.588 35.2561C169.698 37.1558 168.372 38.8195 166.719 40.1128C165.083 41.3861 163.168 42.3238 160.976 42.9258C158.669 43.5445 156.29 43.8497 153.902 43.8331C152.825 43.8204 151.752 43.6911 150.703 43.4474C149.542 43.1909 148.367 42.8702 147.176 42.4852C145.985 42.1002 144.839 41.6856 143.738 41.2415C142.637 40.798 141.659 40.3783 140.806 39.9824L142.116 28.3743C143.865 29.407 145.755 30.18 147.727 30.669C149.705 31.1827 151.739 31.4463 153.783 31.4536C154.159 31.4536 154.617 31.4393 155.152 31.4097C155.673 31.3833 156.189 31.2935 156.688 31.1424C157.143 31.0116 157.564 30.7843 157.923 30.4761C158.26 30.1802 158.429 29.7558 158.429 29.2028C158.436 28.8483 158.308 28.5043 158.071 28.2406C157.814 27.9584 157.499 27.7342 157.148 27.5831C156.738 27.406 156.309 27.2769 155.869 27.1985C155.392 27.1094 154.925 27.0454 154.47 27.0067C154.014 26.968 153.588 26.9479 153.191 26.9465H152.237C150.53 26.9465 148.978 26.6802 147.58 26.1476C146.236 25.6506 145.01 24.8817 143.978 23.8891C142.956 22.8827 142.16 21.671 141.642 20.3343C141.085 18.9426 140.807 17.3978 140.808 15.7C140.808 13.3703 141.279 11.2828 142.222 9.43739C143.14 7.62087 144.427 6.01591 146.002 4.72534C147.617 3.41217 149.458 2.40364 151.434 1.74909C153.476 1.0586 155.618 0.708372 157.774 0.712437C158.746 0.712437 159.747 0.747138 160.779 0.816541C161.812 0.88634 162.84 1.00997 163.86 1.18693C164.866 1.35946 165.864 1.58515 166.847 1.86305C167.797 2.13077 168.723 2.47753 169.615 2.8997L168.492 14.9253C167.102 14.4612 165.686 14.0806 164.25 13.7856C162.826 13.4854 161.375 13.3315 159.919 13.3265C159.662 13.3265 159.329 13.3316 158.922 13.3418C158.515 13.352 158.088 13.3816 157.643 13.4306C157.188 13.4809 156.736 13.554 156.288 13.6497C155.868 13.7371 155.459 13.8713 155.069 14.0497C154.733 14.2014 154.437 14.4296 154.205 14.716C153.987 14.9928 153.88 15.3419 153.908 15.6934C153.907 15.8875 153.951 16.0792 154.036 16.2538C154.121 16.4283 154.245 16.5811 154.398 16.7005C154.753 16.9584 155.159 17.1353 155.59 17.2188C156.118 17.3315 156.657 17.3859 157.197 17.381C157.782 17.381 158.362 17.3664 158.937 17.3372C159.513 17.308 160.049 17.2784 160.545 17.2484C160.951 17.22 161.359 17.2149 161.765 17.2331C163.352 17.3324 164.781 17.6681 166.051 18.2401C167.269 18.7767 168.367 19.5522 169.28 20.5205C170.181 21.4993 170.87 22.6536 171.305 23.911C171.784 25.3078 172.019 26.7763 172.002 28.2527Z" fill="white"/>
<path d="M67.4933 38.3055C67.4933 38.3055 66.9339 38.1784 66.607 38.4907C66.2801 38.8031 66.0157 38.5236 65.8139 37.7774C65.612 37.0311 64.9111 34.9337 65.5945 34.7167C66.2779 34.4998 66.9635 37.099 67.1193 37.0574C67.275 37.0158 67.4933 38.3055 67.4933 38.3055Z" fill="#442509" stroke="#0F0107" stroke-width="0.65" stroke-linecap="round" stroke-linejoin="round"/>
<path d="M78.2741 42.3306C78.2741 42.3306 77.8507 42.9881 77.8134 43.1546C77.7761 43.3212 82.0224 45.4076 82.38 44.8795C82.7376 44.3513 79.7265 42.3306 79.7265 42.3306H78.2741Z" fill="#442509" stroke="#0F0107" stroke-width="0.65" stroke-linecap="round" stroke-linejoin="round"/>
<path d="M72.1345 34.5504C72.1345 34.5504 69.6872 36.3947 69.3922 36.4363C69.0971 36.478 67.4176 36.7059 67.0491 36.7059C67.0491 36.7059 67.5098 38.8603 67.4879 39.1923C67.4659 39.5244 69.3428 39.5748 70.3114 39.2855C71.28 38.9962 74.2944 37.0686 75.1248 36.8604C75.9552 36.6522 76.1724 36.6018 76.2492 37.016C76.326 37.4303 78.0405 39.5649 78.0405 39.5649L77.8946 42.4239C77.8946 42.4239 79.8856 43.0244 80.1555 42.7976C80.4253 42.5708 81.553 39.3162 81.4872 39.0258C81.4213 38.7354 80.6096 35.152 79.9361 34.4233C79.2625 33.6946 72.1345 34.5504 72.1345 34.5504Z" fill="#F7D25E" stroke="#101011" stroke-width="0.65" stroke-miterlimit="10"/>
<path d="M72.9078 30.9473L82.6685 32.8771L82.0575 31.1314L74.4107 28.8203L73.147 29.56L72.9078 30.9473Z" fill="#0345FC" stroke="#22266D" stroke-width="0.65" stroke-linecap="round" stroke-linejoin="round"/>
<path d="M69.7914 28.5224C69.7057 28.5311 69.6193 28.5311 69.5336 28.5224C69.3625 28.5059 69.0203 27.8024 68.8096 27.9197C68.599 28.0369 68.5957 28.2144 68.768 28.2868C68.9402 28.3591 69.0685 28.5498 68.9753 28.6089C68.882 28.6681 67.8783 28.5596 67.8004 28.5772C67.7226 28.5947 67.7006 28.9191 67.8586 28.9059C68.0165 28.8928 68.8228 28.8982 68.8173 28.9322C68.8118 28.9662 67.8301 28.9465 67.807 28.9848C67.784 29.0232 67.6776 29.1985 67.8575 29.2369C68.0374 29.2752 68.8096 29.1689 68.8447 29.1821C68.8798 29.1952 67.8443 29.2807 67.8323 29.3442C67.8202 29.4078 67.8322 29.6007 67.9266 29.6094C68.0209 29.6182 68.8228 29.4242 68.8623 29.4122C68.9018 29.4001 68.1207 29.6588 68.1076 29.6675C68.0944 29.6763 68.1339 29.8604 68.248 29.8538C68.5299 29.8045 68.8089 29.7401 69.0839 29.6609C69.1618 29.6303 69.7091 29.604 69.742 29.4812C69.775 29.3585 70.0711 29.3464 70.0711 29.3464L69.9329 28.621L69.7914 28.5224Z" fill="#5A8F37" stroke="#152108" stroke-width="0.65" stroke-linecap="round" stroke-linejoin="round"/>
<path d="M72.9254 30.4542C72.83 30.2536 71.7901 30.1835 71.4928 30.0443C71.1955 29.9052 70.3037 30.166 70.0667 30.0794C69.8298 29.9928 70.137 29.6246 69.8572 29.32C69.5775 29.0154 69.7475 28.4729 69.7475 28.4729C69.9856 28.4758 70.2233 28.4523 70.4562 28.4028C70.963 28.3151 72.7455 28.6735 73.0516 28.8126C73.3576 28.9518 74.3887 28.7458 74.3887 28.7458C74.7128 28.7284 75.0369 28.778 75.3409 28.8915" fill="#0345FC"/>
<path d="M72.9254 30.4542C72.83 30.2536 71.7901 30.1835 71.4928 30.0443C71.1955 29.9052 70.3037 30.166 70.0667 30.0794C69.8298 29.9928 70.137 29.6246 69.8572 29.32C69.5775 29.0154 69.7475 28.4729 69.7475 28.4729C69.9856 28.4758 70.2233 28.4523 70.4562 28.4028C70.963 28.3151 72.7455 28.6735 73.0516 28.8126C73.3576 28.9518 74.3887 28.7458 74.3887 28.7458C74.7128 28.7284 75.0369 28.778 75.3409 28.8915" stroke="#22266D" stroke-width="0.65" stroke-linecap="round" stroke-linejoin="round"/>
<path d="M82.7475 32.7807C82.7376 33.1346 81.9138 36.5788 81.0088 36.6599C77.9604 36.9361 71.3557 34.9373 71.3557 34.9373L71.7495 32.3599C71.7495 32.3599 72.2683 30.6405 72.6358 30.2778" fill="#0345FC"/>
<path d="M82.7475 32.7807C82.7376 33.1346 81.9138 36.5788 81.0088 36.6599C77.9604 36.9361 71.3557 34.9373 71.3557 34.9373L71.7495 32.3599C71.7495 32.3599 72.2683 30.6405 72.6358 30.2778" stroke="#22266D" stroke-width="0.65" stroke-linecap="round" stroke-linejoin="round"/>
<path d="M74.3613 28.9561C74.336 29.1992 74.4052 29.4428 74.5544 29.6366C75.2614 30.5135 76.2864 31.0762 77.4065 31.2025C79.1243 31.3943 81.0703 31.7844 80.9716 30.9406C80.8728 30.0968 74.3613 28.9561 74.3613 28.9561Z" fill="#5A8F37" stroke="#152108" stroke-width="0.65" stroke-linecap="round" stroke-linejoin="round"/>
<path d="M72.695 26.5693C72.695 26.5693 72.5733 26.337 72.6545 26.2406C72.7356 26.1441 72.0544 25.7003 72.3517 25.2751C72.3517 25.2751 72.1246 24.7042 72.6084 24.4664C72.6084 24.4664 72.4044 24.1519 72.9693 24.1169C72.9693 24.1169 73.5057 23.2731 74.2165 23.4594C74.2165 23.4594 74.245 22.3822 75.8301 22.6441C77.4152 22.906 78.2434 23.6917 78.2434 23.6917C78.2434 23.6917 79.7375 22.815 81.0516 24.1629C81.0516 24.1629 81.588 24.6582 81.4827 26.1134C81.8914 26.7018 82.1435 27.3844 82.2155 28.0969C82.2874 28.8094 82.1768 29.5285 81.8941 30.1866C80.9233 32.4879 75.2871 29.8119 75.0425 29.585C74.7979 29.3582 73.5836 28.5988 73.566 27.6465L72.695 26.5693Z" fill="#5A8F37" stroke="#152108" stroke-width="0.65" stroke-linecap="round" stroke-linejoin="round"/>
<path d="M82.4678 28.0707C82.4612 27.985 82.4458 27.9002 82.4217 27.8176C82.3778 27.6521 81.6264 27.4308 81.7076 27.2039C81.7888 26.9771 81.9643 26.9453 82.063 27.102C82.1617 27.2587 82.3724 27.3552 82.4162 27.2532C82.4601 27.1513 82.1859 26.1771 82.1914 26.1015C82.1969 26.0259 82.5117 25.947 82.5292 26.1015C82.5468 26.256 82.6806 27.0538 82.7124 27.0418C82.7442 27.0297 82.5643 26.0643 82.6027 26.038C82.6411 26.0117 82.7925 25.8747 82.8594 26.0467C82.9263 26.2188 82.9494 26.9957 82.9691 27.0242C82.9888 27.0527 82.9022 26.0237 82.9691 25.9996C83.036 25.9755 83.2225 25.9624 83.2455 26.0489C83.2686 26.1355 83.2104 26.9629 83.205 27.0034C83.1995 27.0439 83.3267 26.2363 83.3322 26.2188C83.3377 26.2013 83.5275 26.2122 83.5395 26.3284C83.5377 26.614 83.5201 26.8994 83.4869 27.1831C83.4693 27.2653 83.534 27.8088 83.4167 27.8592C83.2993 27.9096 83.3388 28.2022 83.3388 28.2022L82.5983 28.1847L82.4678 28.0707Z" fill="#5A8F37" stroke="#152108" stroke-width="0.65" stroke-linecap="round" stroke-linejoin="round"/>
<path d="M81.0089 31.0218C81.0089 31.0218 81.7383 30.716 81.9742 30.2141C81.9742 30.2141 82.4031 29.6114 82.368 29.2498C82.3329 28.8882 82.1968 28.1058 82.3109 28.0926C82.425 28.0795 83.4781 28.0444 83.5384 28.0619C83.5988 28.0795 83.7052 28.2975 83.7578 28.8739C83.8105 29.4503 83.3344 31.3012 83.1907 31.5938C83.047 31.8864 82.7102 32.8956 82.7102 32.8956" fill="#0345FC"/>
<path d="M81.0089 31.0218C81.0089 31.0218 81.7383 30.716 81.9742 30.2141C81.9742 30.2141 82.4031 29.6114 82.368 29.2498C82.3329 28.8882 82.1968 28.1058 82.3109 28.0926C82.425 28.0795 83.4781 28.0444 83.5384 28.0619C83.5988 28.0795 83.7052 28.2975 83.7578 28.8739C83.8105 29.4503 83.3344 31.3012 83.1907 31.5938C83.047 31.8864 82.7102 32.8956 82.7102 32.8956" stroke="#22266D" stroke-width="0.65" stroke-linecap="round" stroke-linejoin="round"/>
<path d="M76.2382 25.662C76.0794 25.6912 75.916 25.683 75.761 25.6379C75.5164 25.5623 74.0948 24.8183 73.9083 24.8007C73.7218 24.7832 72.5919 24.1257 72.3725 24.7361C72.1532 25.3464 72.921 25.959 73.0197 26.0171C73.1185 26.0752 74.0849 26.5584 74.8374 26.6099C75.5899 26.6614 76.3578 26.4006 76.3929 26.4762C76.428 26.5519 76.6123 27.0526 77.9944 27C79.3766 26.9474 80.0688 26.3776 80.2377 26.4412C80.4066 26.5047 78.9905 25.6325 78.6702 25.6204C78.3498 25.6083 76.4126 25.0681 76.2382 25.662Z" fill="white" stroke="#152108" stroke-width="0.65" stroke-linecap="round" stroke-linejoin="round"/>
<path d="M76.3894 26.4763C76.303 26.3615 76.2442 26.2283 76.2178 26.0871C76.1914 25.9458 76.198 25.8004 76.2371 25.6621" stroke="#152108" stroke-width="0.65" stroke-linecap="round" stroke-linejoin="round"/>
<path d="M73.1799 27.3026L73.9621 27.1624L75.195 27.2982L76.0287 27.9963L77.2749 28.416L77.7729 28.359L77.8859 28.7031L76.5015 28.7995L75.1106 28.5157L74.4524 27.9053L73.9796 27.4944L73.1799 27.3026Z" fill="#4C1E07" stroke="#BB5B0C" stroke-width="0.65" stroke-linecap="round" stroke-linejoin="round"/>
<path d="M73.0702 26.679C73.0702 26.679 72.6062 26.3075 72.4888 26.4521C72.3715 26.5968 72.1784 27.0274 72.7203 27.1326C73.2622 27.2378 73.8172 27.2674 74.0487 27.3726C74.2801 27.4778 74.6432 27.3332 74.8166 27.4734C74.9899 27.6137 76.0133 28.4334 76.643 28.5254C77.2726 28.6175 77.661 28.5594 77.7575 28.5079C77.854 28.4564 77.5469 28.761 76.485 28.555C75.4232 28.349 75.6864 28.8125 74.8297 28.0323C73.973 27.2521 73.1042 27.1809 73.0428 27.2072C72.9814 27.2335 72.8069 27.5907 73.701 27.617C74.2911 27.6345 74.1123 28.5167 75.4012 28.7347C76.6902 28.9528 76.8273 29.0142 77.0127 29.1665C77.198 29.3188 77.9999 29.2629 78.193 28.8871C78.386 28.5112 78.5769 28.0531 77.6379 28.0323C76.6989 28.0115 76.1351 27.8526 75.5142 27.3595C74.8933 26.8664 73.6768 26.9847 73.0702 26.679Z" fill="#BB5B0C" stroke="#4C1E07" stroke-width="0.65" stroke-linecap="round" stroke-linejoin="round"/>
<path d="M76.168 26.4741C76.168 26.4741 76.2854 26.8533 76.4346 26.976C76.5838 27.0987 78.08 27.8395 78.781 27.7661" stroke="#152108" stroke-width="0.65" stroke-linecap="round" stroke-linejoin="round"/>
<path d="M76.1022 27.1284C76.1022 27.1284 76.8265 27.6084 76.9273 27.6961L76.1022 27.1284Z" fill="#5A8F37"/>
<path d="M76.1022 27.1284C76.1022 27.1284 76.8265 27.6084 76.9273 27.6961" stroke="#152108" stroke-width="0.65" stroke-linecap="round" stroke-linejoin="round"/>
<path d="M75.9793 25.6708C75.9793 25.6708 76.0013 25.57 75.6788 25.3212C75.3563 25.0725 74.1738 24.095 72.9364 24.1158C72.434 24.1246 72.6073 24.4621 72.6073 24.4621" stroke="#152108" stroke-width="0.65" stroke-linecap="round" stroke-linejoin="round"/>
<path d="M74.2012 23.4507C74.2012 23.4507 76.1636 24.0972 77.0587 24.5903C77.9539 25.0835 78.9236 24.4183 80.3968 25.5645" fill="#5A8F37"/>
<path d="M74.2012 23.4507C74.2012 23.4507 76.1636 24.0972 77.0587 24.5903C77.9539 25.0835 78.9236 24.4183 80.3968 25.5645" stroke="#152108" stroke-width="0.65" stroke-linecap="round" stroke-linejoin="round"/>
<path d="M76.2141 25.6851C76.2324 25.5277 76.3111 25.3836 76.4335 25.2829C76.6255 25.1558 77.0566 24.9541 77.2376 24.6725C77.4186 24.3909 77.6632 24.1717 78.2391 23.6863" stroke="#152108" stroke-width="0.65" stroke-linecap="round" stroke-linejoin="round"/>
<path d="M81.4804 26.1104C81.4804 26.1104 81.4114 26.7207 81.3763 26.8029L81.4804 26.1104Z" fill="#5A8F37"/>
<path d="M81.4804 26.1104C81.4804 26.1104 81.4114 26.7207 81.3763 26.8029" stroke="#152108" stroke-width="0.65" stroke-linecap="round" stroke-linejoin="round"/>
<path d="M72.728 25.7376C72.728 25.7376 72.955 24.9979 73.1887 24.9574C73.4223 24.9168 74.1145 25.0154 74.1902 25.6499C74.2659 26.2844 74.3065 26.4532 74.2604 26.4817C74.2143 26.5101 72.8881 26.1387 72.728 25.7376Z" fill="black"/>
<path d="M76.6276 26.7383C76.6276 26.7383 76.6452 25.923 76.8964 25.8715C77.1476 25.82 77.4262 25.7191 77.7114 25.8649C77.9966 26.0106 78.8479 26.4128 78.3586 26.953C78.3586 26.9476 77.4087 27.1634 76.6276 26.7383Z" fill="black"/>
<path d="M73.2083 25.8026C73.2761 25.8026 73.331 25.7476 73.331 25.6799C73.331 25.6121 73.2761 25.5571 73.2083 25.5571C73.1405 25.5571 73.0856 25.6121 73.0856 25.6799C73.0856 25.7476 73.1405 25.8026 73.2083 25.8026Z" fill="white"/>
<path d="M73.7206 25.4001C73.7817 25.4001 73.8313 25.357 73.8313 25.3037C73.8313 25.2504 73.7817 25.2073 73.7206 25.2073C73.6595 25.2073 73.6099 25.2504 73.6099 25.3037C73.6099 25.357 73.6595 25.4001 73.7206 25.4001Z" fill="white"/>
<path d="M77.9207 26.4128C78.049 26.4128 78.153 26.3672 78.153 26.3109C78.153 26.2546 78.049 26.209 77.9207 26.209C77.7924 26.209 77.6884 26.2546 77.6884 26.3109C77.6884 26.3672 77.7924 26.4128 77.9207 26.4128Z" fill="white"/>
<path d="M77.7837 26.849C77.837 26.849 77.8802 26.8126 77.8802 26.7679C77.8802 26.7231 77.837 26.6868 77.7837 26.6868C77.7305 26.6868 77.6873 26.7231 77.6873 26.7679C77.6873 26.8126 77.7305 26.849 77.7837 26.849Z" fill="white"/>
<path d="M77.1431 26.5927C77.2217 26.5927 77.2855 26.5407 77.2855 26.4765C77.2855 26.4124 77.2217 26.3604 77.1431 26.3604C77.0644 26.3604 77.0006 26.4124 77.0006 26.4765C77.0006 26.5407 77.0644 26.5927 77.1431 26.5927Z" fill="white"/>
<path d="M72.5733 26.0808C72.5733 26.0808 72.8289 26.3909 72.9254 26.4096C73.022 26.4282 73.8534 26.7734 74.2056 26.7558" stroke="#152108" stroke-width="0.65" stroke-linecap="round" stroke-linejoin="round"/>
</g>
<defs>
<clipPath id="clip0">
<rect width="172" height="45" fill="white"/>
</clipPath>
</defs>
</svg>
